<svg xmlns="http://www.w3.org/2000/svg" width="808.787" height="92.957" viewBox="0 0 808.787 92.957">
  <defs>
    <style>
      .a {
        fill: #fff;
        fill-rule: evenodd;
      }
    </style>
  </defs>
  <g>
    <g>
      <g>
        <g>
          <g>
            <path class="a" d="M108.466,73.645c-.336-9.074,24.824-19.119,24.488-28.192s-26.167-17.173-26.5-26.246l-3.509.038-3.508.039c.335,9.073,25.542,17.527,25.877,26.6s-24.2,18.764-23.863,27.837l3.508-.039,3.51-.037Z"/>
            <path class="a" d="M207.427,82.68c-16.7,0-34.673-13.872-51.372-13.872S123.934,82.68,107.235,82.68v3.814c16.7,0,32.759-13.525,49.457-13.525s34.035,13.525,50.735,13.525Z"/>
            <path class="a" d="M205.676,19.207c0,9.074-25.524,18.843-25.524,27.918s25.524,17.456,25.524,26.53H212.7c0-9.074-24.888-17.8-24.888-26.877S212.7,28.281,212.7,19.207h-7.021Z"/>
            <path class="a" d="M207.427,89.024c-16.7,0-34.673-13.871-51.371-13.871s-32.122,13.871-48.82,13.871V92.84c16.7,0,32.758-13.527,49.457-13.527S190.729,92.84,207.427,92.84Z"/>
            <path class="a" d="M207.427,69.848c-16.7,0-34.673-13.872-51.372-13.872s-32.121,13.872-48.819,13.872v3.815c16.7,0,32.758-13.525,49.457-13.525s34.036,13.525,50.734,13.525Z"/>
            <path class="a" d="M207.427,76.192c-16.7,0-34.675-13.872-51.372-13.872s-32.121,13.872-48.82,13.872v3.816c16.7,0,32.759-13.526,49.457-13.526s34.035,13.526,50.735,13.526Z"/>
            <path class="a" d="M108.466,73.645c-.336-9.074,24.824-19.119,24.488-28.192s-26.167-17.173-26.5-26.246l-3.509.038-3.508.039c.335,9.073,25.542,17.527,25.877,26.6s-24.2,18.764-23.863,27.837l3.508-.039,3.51-.037Z"/>
            <path class="a" d="M207.427,82.68c-16.7,0-34.673-13.872-51.372-13.872S123.934,82.68,107.236,82.68v3.814c16.7,0,32.758-13.525,49.457-13.525s34.034,13.525,50.734,13.525Z"/>
            <path class="a" d="M205.676,19.207c0,9.074-25.524,18.843-25.524,27.918s25.524,17.456,25.524,26.53H212.7c0-9.074-24.888-17.8-24.888-26.877S212.7,28.281,212.7,19.207h-7.021Z"/>
            <path class="a" d="M207.427,89.024c-16.7,0-34.673-13.871-51.372-13.871s-32.121,13.871-48.819,13.871V92.84c16.7,0,32.758-13.527,49.457-13.527S190.727,92.84,207.427,92.84Z"/>
            <path class="a" d="M207.427,69.848c-16.7,0-34.673-13.872-51.372-13.872s-32.121,13.872-48.819,13.872v3.815c16.7,0,32.758-13.525,49.457-13.525s34.034,13.525,50.734,13.525Z"/>
            <path class="a" d="M207.427,76.192c-16.7,0-34.673-13.872-51.372-13.872s-32.121,13.872-48.819,13.872v3.816c16.7,0,32.758-13.526,49.457-13.526s34.034,13.526,50.734,13.526Z"/>
          </g>
          <g>
            <path class="a" d="M205.491,19.233c.336,9.06-24.824,19.091-24.488,28.151s26.167,17.149,26.5,26.209l3.509-.038,3.508-.038c-.335-9.061-25.542-17.5-25.877-26.563s24.2-18.737,23.863-27.8L209,19.2l-3.51.038Z"/>
            <path class="a" d="M106.53,10.21c16.7,0,34.673,13.853,51.373,13.853s32.12-13.853,48.82-13.853V6.4c-16.7,0-32.76,13.506-49.458,13.506S123.23,6.4,106.53,6.4Z"/>
            <path class="a" d="M108.281,73.593c0-9.061,25.524-18.816,25.524-27.878s-25.524-17.431-25.524-26.492H101.26c0,9.061,24.888,17.776,24.888,26.839S101.26,64.532,101.26,73.593h7.021Z"/>
            <path class="a" d="M106.53,3.875c16.7,0,34.673,13.851,51.371,13.851s32.122-13.851,48.82-13.851V.065c-16.7,0-32.758,13.507-49.457,13.507S123.228.065,106.53.065Z"/>
            <path class="a" d="M106.53,23.024c16.7,0,34.673,13.852,51.373,13.852s32.12-13.852,48.818-13.852V19.215c-16.7,0-32.758,13.505-49.457,13.505s-34.036-13.5-50.734-13.5Z"/>
            <path class="a" d="M106.53,16.689c16.7,0,34.675,13.852,51.373,13.852s32.12-13.852,48.82-13.852v-3.81c-16.7,0-32.76,13.506-49.458,13.506S123.23,12.879,106.53,12.879Z"/>
            <path class="a" d="M205.491,19.233c.336,9.06-24.824,19.091-24.488,28.151s26.167,17.149,26.5,26.209l3.509-.038,3.508-.038c-.335-9.061-25.542-17.5-25.877-26.563s24.2-18.737,23.863-27.8L209,19.2l-3.51.038Z"/>
            <path class="a" d="M106.53,10.21c16.7,0,34.673,13.853,51.373,13.853s32.12-13.853,48.818-13.853V6.4c-16.7,0-32.758,13.506-49.457,13.506S123.23,6.4,106.53,6.4Z"/>
            <path class="a" d="M108.281,73.593c0-9.061,25.524-18.816,25.524-27.878s-25.524-17.431-25.524-26.492H101.26c0,9.061,24.888,17.776,24.888,26.839S101.26,64.532,101.26,73.593h7.021Z"/>
            <path class="a" d="M106.53,3.875c16.7,0,34.673,13.851,51.373,13.851s32.12-13.851,48.818-13.851V.065c-16.7,0-32.758,13.507-49.457,13.507S123.23.065,106.53.065Z"/>
            <path class="a" d="M106.53,23.024c16.7,0,34.673,13.852,51.373,13.852s32.12-13.852,48.818-13.852V19.215c-16.7,0-32.758,13.505-49.457,13.505s-34.034-13.5-50.734-13.5Z"/>
            <path class="a" d="M106.53,16.689c16.7,0,34.673,13.852,51.373,13.852s32.12-13.852,48.818-13.852v-3.81c-16.7,0-32.758,13.506-49.457,13.506S123.23,12.879,106.53,12.879Z"/>
          </g>
        </g>
        <g>
          <g>
            <path class="a" d="M106.058,73.724c.335-9.091-24.825-19.156-24.489-28.247s26.167-17.206,26.5-26.3l3.51.037q1.754.021,3.507.039c-.335,9.091-25.541,17.562-25.877,26.653s24.2,18.8,23.863,27.891l-3.508-.038-3.509-.038Z"/>
            <path class="a" d="M7.1,82.777c16.7,0,34.672-13.9,51.372-13.9s32.12,13.9,48.82,13.9V86.6c-16.7,0-32.76-13.552-49.457-13.552S23.8,86.6,7.1,86.6Z"/>
            <path class="a" d="M8.847,19.18c0,9.092,25.525,18.879,25.525,27.972S8.847,64.642,8.847,73.734H1.827c0-9.092,24.887-17.837,24.887-26.93S1.827,28.272,1.827,19.18h7.02Z"/>
            <path class="a" d="M7.1,89.134c16.7,0,34.672-13.9,51.37-13.9s32.122,13.9,48.82,13.9v3.823c-16.7,0-32.758-13.553-49.457-13.553S23.794,92.957,7.1,92.957Z"/>
            <path class="a" d="M7.1,69.92c16.7,0,34.672-13.9,51.372-13.9s32.12,13.9,48.818,13.9v3.822c-16.7,0-32.758-13.551-49.457-13.551S23.794,73.742,7.1,73.742Z"/>
            <path class="a" d="M7.1,76.277c16.7,0,34.674-13.9,51.372-13.9s32.12,13.9,48.82,13.9V80.1c-16.7,0-32.76-13.553-49.457-13.553S23.8,80.1,7.1,80.1Z"/>
            <path class="a" d="M106.058,73.724c.335-9.091-24.825-19.156-24.489-28.247s26.167-17.206,26.5-26.3l3.51.037q1.754.021,3.507.039c-.335,9.091-25.541,17.562-25.877,26.653s24.2,18.8,23.863,27.891l-3.508-.038-3.509-.038Z"/>
            <path class="a" d="M7.1,82.777c16.7,0,34.672-13.9,51.372-13.9s32.12,13.9,48.818,13.9V86.6c-16.7,0-32.758-13.552-49.457-13.552S23.8,86.6,7.1,86.6Z"/>
            <path class="a" d="M8.847,19.18c0,9.092,25.525,18.879,25.525,27.972S8.847,64.642,8.847,73.734H1.827c0-9.092,24.887-17.837,24.887-26.93S1.827,28.272,1.827,19.18h7.02Z"/>
            <path class="a" d="M7.1,89.134c16.7,0,34.672-13.9,51.372-13.9s32.12,13.9,48.818,13.9v3.823c-16.7,0-32.758-13.553-49.457-13.553S23.8,92.957,7.1,92.957Z"/>
            <path class="a" d="M7.1,69.92c16.7,0,34.672-13.9,51.372-13.9s32.12,13.9,48.818,13.9v3.822c-16.7,0-32.758-13.551-49.457-13.551S23.8,73.742,7.1,73.742Z"/>
            <path class="a" d="M7.1,76.277c16.7,0,34.672-13.9,51.372-13.9s32.12,13.9,48.818,13.9V80.1c-16.7,0-32.758-13.553-49.457-13.553S23.8,80.1,7.1,80.1Z"/>
          </g>
          <g>
            <path class="a" d="M9.032,19.2C8.7,28.283,33.856,38.334,33.52,47.412S7.353,64.594,7.017,73.672l-3.509-.038L0,73.6c.335-9.078,25.542-17.537,25.877-26.615S1.679,28.207,2.014,19.129q1.755.019,3.508.039l3.51.037Z"/>
            <path class="a" d="M107.993,10.165c-16.7,0-34.673,13.88-51.372,13.88S24.5,10.165,7.8,10.165V6.348c16.7,0,32.759,13.533,49.457,13.533S91.293,6.348,107.993,6.348Z"/>
            <path class="a" d="M106.243,73.672c0-9.079-25.525-18.853-25.525-27.933S106.243,28.274,106.243,19.2h7.02c0,9.079-24.888,17.812-24.888,26.892s24.888,18.506,24.888,27.585h-7.02Z"/>
            <path class="a" d="M107.993,3.817C91.3,3.817,73.32,17.7,56.622,17.7S24.5,3.817,7.8,3.817V0C24.5,0,40.56,13.533,57.26,13.533S91.3,0,107.993,0Z"/>
            <path class="a" d="M107.993,23c-16.7,0-34.673,13.879-51.372,13.879S24.5,23,7.8,23V19.187c16.7,0,32.758,13.532,49.458,13.532S91.3,19.187,107.993,19.187Z"/>
            <path class="a" d="M107.993,16.656c-16.7,0-34.675,13.88-51.372,13.88S24.5,16.656,7.8,16.656V12.839c16.7,0,32.759,13.533,49.457,13.533s34.035-13.533,50.735-13.533Z"/>
            <path class="a" d="M9.032,19.2C8.7,28.283,33.856,38.334,33.52,47.412S7.353,64.594,7.017,73.672l-3.509-.038L0,73.6c.335-9.078,25.542-17.537,25.877-26.615S1.679,28.207,2.014,19.129q1.755.019,3.508.039l3.51.037Z"/>
            <path class="a" d="M107.993,10.165c-16.7,0-34.673,13.88-51.372,13.88S24.5,10.165,7.8,10.165V6.348c16.7,0,32.758,13.533,49.458,13.533S91.293,6.348,107.993,6.348Z"/>
            <path class="a" d="M106.243,73.672c0-9.079-25.525-18.853-25.525-27.933S106.243,28.274,106.243,19.2h7.02c0,9.079-24.888,17.812-24.888,26.892s24.888,18.506,24.888,27.585h-7.02Z"/>
            <path class="a" d="M107.993,3.817C91.293,3.817,73.32,17.7,56.621,17.7S24.5,3.817,7.8,3.817V0C24.5,0,40.56,13.533,57.26,13.533S91.293,0,107.993,0Z"/>
            <path class="a" d="M107.993,23c-16.7,0-34.673,13.879-51.372,13.879S24.5,23,7.8,23V19.187c16.7,0,32.758,13.532,49.458,13.532s34.033-13.532,50.733-13.532Z"/>
            <path class="a" d="M107.993,16.656c-16.7,0-34.673,13.88-51.372,13.88S24.5,16.656,7.8,16.656V12.839c16.7,0,32.758,13.533,49.458,13.533s34.033-13.533,50.733-13.533Z"/>
          </g>
        </g>
      </g>
      <g>
        <g>
          <g>
            <path class="a" d="M307.094,73.645c-.335-9.073,24.824-19.119,24.489-28.192s-26.168-17.172-26.5-26.245l-3.51.037-3.507.039c.335,9.073,25.541,17.527,25.876,26.6s-24.2,18.764-23.862,27.837l3.508-.039,3.509-.037Z"/>
            <path class="a" d="M406.054,82.68c-16.7,0-34.672-13.872-51.371-13.872S322.562,82.68,305.863,82.68V86.5c16.7,0,32.759-13.525,49.457-13.525S389.355,86.5,406.054,86.5Z"/>
            <path class="a" d="M404.3,19.208c0,9.074-25.525,18.842-25.525,27.917S404.3,64.581,404.3,73.655h7.02c0-9.074-24.887-17.8-24.887-26.877s24.887-18.5,24.887-27.57H404.3Z"/>
            <path class="a" d="M406.054,89.025c-16.7,0-34.672-13.872-51.37-13.872s-32.122,13.872-48.819,13.872V92.84c16.7,0,32.757-13.526,49.457-13.526S389.357,92.84,406.054,92.84Z"/>
            <path class="a" d="M406.054,69.849c-16.7,0-34.672-13.873-51.371-13.873s-32.121,13.873-48.818,13.873v3.814c16.7,0,32.757-13.525,49.457-13.525s34.035,13.525,50.732,13.525Z"/>
            <path class="a" d="M406.054,76.193c-16.7,0-34.674-13.873-51.371-13.873s-32.121,13.873-48.82,13.873v3.815c16.7,0,32.759-13.526,49.457-13.526s34.035,13.526,50.734,13.526Z"/>
            <path class="a" d="M307.094,73.645c-.335-9.073,24.824-19.119,24.489-28.192s-26.168-17.172-26.5-26.245l-3.51.037-3.507.039c.335,9.073,25.541,17.527,25.876,26.6s-24.2,18.764-23.862,27.837l3.508-.039,3.509-.037Z"/>
            <path class="a" d="M406.054,82.68c-16.7,0-34.672-13.872-51.371-13.872S322.562,82.68,305.865,82.68V86.5c16.7,0,32.757-13.525,49.457-13.525S389.355,86.5,406.054,86.5Z"/>
            <path class="a" d="M404.3,19.208c0,9.074-25.525,18.842-25.525,27.917S404.3,64.581,404.3,73.655h7.02c0-9.074-24.887-17.8-24.887-26.877s24.887-18.5,24.887-27.57H404.3Z"/>
            <path class="a" d="M406.054,89.025c-16.7,0-34.672-13.872-51.371-13.872s-32.121,13.872-48.818,13.872V92.84c16.7,0,32.757-13.526,49.457-13.526S389.355,92.84,406.054,92.84Z"/>
            <path class="a" d="M406.054,69.849c-16.7,0-34.672-13.873-51.371-13.873s-32.121,13.873-48.818,13.873v3.814c16.7,0,32.757-13.525,49.457-13.525s34.033,13.525,50.732,13.525Z"/>
            <path class="a" d="M406.054,76.193c-16.7,0-34.672-13.873-51.371-13.873s-32.121,13.873-48.818,13.873v3.815c16.7,0,32.757-13.526,49.457-13.526s34.033,13.526,50.732,13.526Z"/>
          </g>
          <g>
            <path class="a" d="M404.119,19.233c.335,9.06-24.824,19.092-24.488,28.152s26.167,17.148,26.5,26.208l3.51-.038,3.508-.038c-.336-9.06-25.542-17.5-25.877-26.562s24.2-18.738,23.862-27.8l-3.507.038-3.51.038Z"/>
            <path class="a" d="M305.159,10.211c16.7,0,34.673,13.852,51.372,13.852s32.12-13.852,48.819-13.852V6.4c-16.7,0-32.759,13.506-49.456,13.506S321.858,6.4,305.159,6.4Z"/>
            <path class="a" d="M306.909,73.593c0-9.061,25.525-18.816,25.525-27.878s-25.525-17.431-25.525-26.492h-7.02c0,9.061,24.888,17.777,24.888,26.839s-24.888,18.47-24.888,27.531h7.02Z"/>
            <path class="a" d="M305.159,3.875c16.7,0,34.673,13.852,51.37,13.852S388.651,3.875,405.348,3.875V.065c-16.7,0-32.757,13.507-49.456,13.507S321.856.065,305.159.065Z"/>
            <path class="a" d="M305.159,23.024c16.7,0,34.673,13.853,51.372,13.853s32.12-13.853,48.817-13.853V19.215c-16.7,0-32.757,13.506-49.456,13.506s-34.036-13.506-50.733-13.506Z"/>
            <path class="a" d="M305.159,16.689c16.7,0,34.674,13.853,51.372,13.853s32.12-13.853,48.819-13.853v-3.81c-16.7,0-32.759,13.507-49.456,13.507s-34.036-13.507-50.735-13.507Z"/>
            <path class="a" d="M404.119,19.233c.335,9.06-24.824,19.092-24.488,28.152s26.167,17.148,26.5,26.208l3.51-.038,3.508-.038c-.336-9.06-25.542-17.5-25.877-26.562s24.2-18.738,23.862-27.8l-3.507.038-3.51.038Z"/>
            <path class="a" d="M305.159,10.211c16.7,0,34.673,13.852,51.372,13.852s32.12-13.852,48.817-13.852V6.4c-16.7,0-32.757,13.506-49.456,13.506S321.858,6.4,305.159,6.4Z"/>
            <path class="a" d="M306.909,73.593c0-9.061,25.525-18.816,25.525-27.878s-25.525-17.431-25.525-26.492h-7.02c0,9.061,24.888,17.777,24.888,26.839s-24.888,18.47-24.888,27.531h7.02Z"/>
            <path class="a" d="M305.159,3.875c16.7,0,34.673,13.852,51.372,13.852s32.12-13.852,48.817-13.852V.065c-16.7,0-32.757,13.507-49.456,13.507S321.858.065,305.159.065Z"/>
            <path class="a" d="M305.159,23.024c16.7,0,34.673,13.853,51.372,13.853s32.12-13.853,48.817-13.853V19.215c-16.7,0-32.757,13.506-49.456,13.506s-34.034-13.506-50.733-13.506Z"/>
            <path class="a" d="M305.159,16.689c16.7,0,34.673,13.853,51.372,13.853s32.12-13.853,48.817-13.853v-3.81c-16.7,0-32.757,13.507-49.456,13.507s-34.034-13.507-50.733-13.507Z"/>
          </g>
        </g>
        <g>
          <g>
            <path class="a" d="M304.686,73.724c.336-9.091-24.824-19.156-24.488-28.247s26.167-17.206,26.5-26.3l3.51.038,3.508.038c-.336,9.091-25.542,17.562-25.877,26.653s24.2,18.8,23.862,27.892l-3.507-.039-3.51-.038Z"/>
            <path class="a" d="M205.726,82.777c16.7,0,34.673-13.9,51.372-13.9s32.12,13.9,48.819,13.9V86.6c-16.7,0-32.759-13.551-49.456-13.551S222.425,86.6,205.726,86.6Z"/>
            <path class="a" d="M207.476,19.18c0,9.092,25.525,18.88,25.525,27.973s-25.525,17.49-25.525,26.581h-7.02c0-9.091,24.888-17.836,24.888-26.929S200.456,28.272,200.456,19.18h7.02Z"/>
            <path class="a" d="M205.726,89.134c16.7,0,34.673-13.9,51.37-13.9s32.122,13.9,48.819,13.9v3.823c-16.7,0-32.757-13.553-49.456-13.553s-34.036,13.553-50.733,13.553Z"/>
            <path class="a" d="M205.726,69.921c16.7,0,34.673-13.9,51.372-13.9s32.12,13.9,48.817,13.9v3.822c-16.7,0-32.757-13.552-49.456-13.552s-34.036,13.552-50.733,13.552Z"/>
            <path class="a" d="M205.726,76.277c16.7,0,34.674-13.9,51.372-13.9s32.12,13.9,48.819,13.9V80.1c-16.7,0-32.759-13.553-49.456-13.553S222.425,80.1,205.726,80.1Z"/>
            <path class="a" d="M304.686,73.724c.336-9.091-24.824-19.156-24.488-28.247s26.167-17.206,26.5-26.3l3.51.038,3.508.038c-.336,9.091-25.542,17.562-25.877,26.653s24.2,18.8,23.862,27.892l-3.507-.039-3.51-.038Z"/>
            <path class="a" d="M205.726,82.777c16.7,0,34.673-13.9,51.372-13.9s32.12,13.9,48.817,13.9V86.6c-16.7,0-32.757-13.551-49.456-13.551S222.425,86.6,205.726,86.6Z"/>
            <path class="a" d="M207.476,19.18c0,9.092,25.525,18.88,25.525,27.973s-25.525,17.49-25.525,26.581h-7.02c0-9.091,24.888-17.836,24.888-26.929S200.456,28.272,200.456,19.18h7.02Z"/>
            <path class="a" d="M205.726,89.134c16.7,0,34.673-13.9,51.372-13.9s32.12,13.9,48.817,13.9v3.823c-16.7,0-32.757-13.553-49.456-13.553s-34.034,13.553-50.733,13.553Z"/>
            <path class="a" d="M205.726,69.921c16.7,0,34.673-13.9,51.372-13.9s32.12,13.9,48.817,13.9v3.822c-16.7,0-32.757-13.552-49.456-13.552s-34.034,13.552-50.733,13.552Z"/>
            <path class="a" d="M205.726,76.277c16.7,0,34.673-13.9,51.372-13.9s32.12,13.9,48.817,13.9V80.1c-16.7,0-32.757-13.553-49.456-13.553S222.425,80.1,205.726,80.1Z"/>
          </g>
          <g>
            <path class="a" d="M207.661,19.206c-.335,9.078,24.824,19.129,24.489,28.207s-26.168,17.181-26.5,26.259l-3.51-.037q-1.754-.021-3.507-.039c.335-9.078,25.541-17.537,25.877-26.614s-24.2-18.775-23.863-27.853l3.508.039,3.509.038Z"/>
            <path class="a" d="M306.621,10.165c-16.7,0-34.672,13.88-51.371,13.88s-32.121-13.88-48.82-13.88V6.349c16.7,0,32.76,13.532,49.457,13.532S289.922,6.349,306.621,6.349Z"/>
            <path class="a" d="M304.871,73.672c0-9.079-25.524-18.852-25.524-27.932S304.871,28.274,304.871,19.2h7.02c0,9.079-24.887,17.812-24.887,26.892s24.887,18.506,24.887,27.585h-7.02Z"/>
            <path class="a" d="M306.621,3.817c-16.7,0-34.672,13.879-51.369,13.879S223.129,3.817,206.432,3.817V0c16.7,0,32.758,13.534,49.457,13.534S289.924,0,306.621,0Z"/>
            <path class="a" d="M306.621,23c-16.7,0-34.672,13.88-51.371,13.88S223.129,23,206.432,23V19.187c16.7,0,32.758,13.533,49.457,13.533s34.035-13.533,50.732-13.533Z"/>
            <path class="a" d="M306.621,16.656c-16.7,0-34.674,13.88-51.371,13.88s-32.121-13.88-48.82-13.88V12.839c16.7,0,32.76,13.533,49.457,13.533s34.035-13.533,50.734-13.533Z"/>
            <path class="a" d="M207.661,19.206c-.335,9.078,24.824,19.129,24.489,28.207s-26.168,17.181-26.5,26.259l-3.51-.037q-1.754-.021-3.507-.039c.335-9.078,25.541-17.537,25.877-26.614s-24.2-18.775-23.863-27.853l3.508.039,3.509.038Z"/>
            <path class="a" d="M306.621,10.165c-16.7,0-34.672,13.88-51.371,13.88s-32.121-13.88-48.818-13.88V6.349c16.7,0,32.758,13.532,49.457,13.532S289.922,6.349,306.621,6.349Z"/>
            <path class="a" d="M304.871,73.672c0-9.079-25.524-18.852-25.524-27.932S304.871,28.274,304.871,19.2h7.02c0,9.079-24.887,17.812-24.887,26.892s24.887,18.506,24.887,27.585h-7.02Z"/>
            <path class="a" d="M306.621,3.817c-16.7,0-34.672,13.879-51.371,13.879S223.129,3.817,206.432,3.817V0c16.7,0,32.758,13.534,49.457,13.534S289.922,0,306.621,0Z"/>
            <path class="a" d="M306.621,23c-16.7,0-34.672,13.88-51.371,13.88S223.129,23,206.432,23V19.187c16.7,0,32.758,13.533,49.457,13.533s34.033-13.533,50.732-13.533Z"/>
            <path class="a" d="M306.621,16.656c-16.7,0-34.672,13.88-51.371,13.88s-32.121-13.88-48.818-13.88V12.839c16.7,0,32.758,13.533,49.457,13.533s34.033-13.533,50.732-13.533Z"/>
          </g>
        </g>
      </g>
    </g>
    <g>
      <g>
        <g>
          <g>
            <path class="a" d="M504.1,73.645c-.336-9.074,24.824-19.119,24.488-28.192s-26.167-17.173-26.5-26.246l-3.509.038-3.508.039c.335,9.073,25.542,17.527,25.877,26.6s-24.2,18.764-23.863,27.837l3.508-.039,3.51-.037Z"/>
            <path class="a" d="M603.063,82.68c-16.7,0-34.673-13.872-51.373-13.872S519.57,82.68,502.871,82.68v3.814c16.7,0,32.759-13.525,49.457-13.525s34.035,13.525,50.735,13.525Z"/>
            <path class="a" d="M601.312,19.207c0,9.074-25.524,18.843-25.524,27.918s25.524,17.456,25.524,26.53h7.021c0-9.074-24.888-17.8-24.888-26.877s24.888-18.5,24.888-27.571h-7.021Z"/>
            <path class="a" d="M603.063,89.024c-16.7,0-34.673-13.871-51.371-13.871s-32.122,13.871-48.82,13.871V92.84c16.7,0,32.758-13.527,49.457-13.527S586.365,92.84,603.063,92.84Z"/>
            <path class="a" d="M603.063,69.848c-16.7,0-34.673-13.872-51.373-13.872s-32.12,13.872-48.818,13.872v3.815c16.7,0,32.758-13.525,49.457-13.525s34.036,13.525,50.734,13.525Z"/>
            <path class="a" d="M603.063,76.192c-16.7,0-34.675-13.872-51.373-13.872s-32.12,13.872-48.819,13.872v3.816c16.7,0,32.759-13.526,49.457-13.526s34.035,13.526,50.735,13.526Z"/>
            <path class="a" d="M504.1,73.645c-.336-9.074,24.824-19.119,24.488-28.192s-26.167-17.173-26.5-26.246l-3.509.038-3.508.039c.335,9.073,25.542,17.527,25.877,26.6s-24.2,18.764-23.863,27.837l3.508-.039,3.51-.037Z"/>
            <path class="a" d="M603.063,82.68c-16.7,0-34.673-13.872-51.373-13.872S519.57,82.68,502.872,82.68v3.814c16.7,0,32.758-13.525,49.457-13.525s34.034,13.525,50.734,13.525Z"/>
            <path class="a" d="M601.312,19.207c0,9.074-25.524,18.843-25.524,27.918s25.524,17.456,25.524,26.53h7.021c0-9.074-24.888-17.8-24.888-26.877s24.888-18.5,24.888-27.571h-7.021Z"/>
            <path class="a" d="M603.063,89.024c-16.7,0-34.673-13.871-51.373-13.871s-32.12,13.871-48.818,13.871V92.84c16.7,0,32.758-13.527,49.457-13.527S586.363,92.84,603.063,92.84Z"/>
            <path class="a" d="M603.063,69.848c-16.7,0-34.673-13.872-51.373-13.872s-32.12,13.872-48.818,13.872v3.815c16.7,0,32.758-13.525,49.457-13.525s34.034,13.525,50.734,13.525Z"/>
            <path class="a" d="M603.063,76.192c-16.7,0-34.673-13.872-51.373-13.872s-32.12,13.872-48.818,13.872v3.816c16.7,0,32.758-13.526,49.457-13.526s34.034,13.526,50.734,13.526Z"/>
          </g>
          <g>
            <path class="a" d="M601.127,19.233c.336,9.06-24.824,19.091-24.488,28.151s26.167,17.149,26.5,26.209l3.509-.038,3.508-.038c-.335-9.061-25.542-17.5-25.877-26.563s24.2-18.737,23.863-27.8l-3.508.038-3.51.038Z"/>
            <path class="a" d="M502.166,10.21c16.7,0,34.673,13.853,51.373,13.853s32.12-13.853,48.82-13.853V6.4c-16.7,0-32.76,13.506-49.458,13.506S518.866,6.4,502.166,6.4Z"/>
            <path class="a" d="M503.917,73.593c0-9.061,25.524-18.816,25.524-27.878s-25.524-17.431-25.524-26.492H496.9c0,9.061,24.888,17.776,24.888,26.839S496.9,64.532,496.9,73.593h7.021Z"/>
            <path class="a" d="M502.166,3.875c16.7,0,34.673,13.851,51.371,13.851s32.122-13.851,48.82-13.851V.065c-16.7,0-32.758,13.507-49.457,13.507S518.864.065,502.166.065Z"/>
            <path class="a" d="M502.166,23.024c16.7,0,34.673,13.852,51.373,13.852s32.12-13.852,48.818-13.852V19.215c-16.7,0-32.758,13.505-49.457,13.505s-34.036-13.5-50.734-13.5Z"/>
            <path class="a" d="M502.166,16.689c16.7,0,34.675,13.852,51.373,13.852s32.12-13.852,48.82-13.852v-3.81c-16.7,0-32.76,13.506-49.458,13.506s-34.035-13.506-50.735-13.506Z"/>
            <path class="a" d="M601.127,19.233c.336,9.06-24.824,19.091-24.488,28.151s26.167,17.149,26.5,26.209l3.509-.038,3.508-.038c-.335-9.061-25.542-17.5-25.877-26.563s24.2-18.737,23.863-27.8l-3.508.038-3.51.038Z"/>
            <path class="a" d="M502.166,10.21c16.7,0,34.673,13.853,51.373,13.853s32.12-13.853,48.818-13.853V6.4c-16.7,0-32.758,13.506-49.457,13.506S518.866,6.4,502.166,6.4Z"/>
            <path class="a" d="M503.917,73.593c0-9.061,25.524-18.816,25.524-27.878s-25.524-17.431-25.524-26.492H496.9c0,9.061,24.888,17.776,24.888,26.839S496.9,64.532,496.9,73.593h7.021Z"/>
            <path class="a" d="M502.166,3.875c16.7,0,34.673,13.851,51.373,13.851s32.12-13.851,48.818-13.851V.065c-16.7,0-32.758,13.507-49.457,13.507S518.866.065,502.166.065Z"/>
            <path class="a" d="M502.166,23.024c16.7,0,34.673,13.852,51.373,13.852s32.12-13.852,48.818-13.852V19.215c-16.7,0-32.758,13.505-49.457,13.505s-34.034-13.5-50.734-13.5Z"/>
            <path class="a" d="M502.166,16.689c16.7,0,34.673,13.852,51.373,13.852s32.12-13.852,48.818-13.852v-3.81c-16.7,0-32.758,13.506-49.457,13.506s-34.034-13.506-50.734-13.506Z"/>
          </g>
        </g>
        <g>
          <g>
            <path class="a" d="M501.694,73.724c.335-9.091-24.825-19.156-24.489-28.247s26.167-17.206,26.5-26.3l3.51.037q1.753.021,3.507.039c-.335,9.091-25.542,17.562-25.877,26.653s24.2,18.8,23.863,27.891l-3.508-.038-3.509-.038Z"/>
            <path class="a" d="M402.733,82.777c16.7,0,34.672-13.9,51.372-13.9s32.12,13.9,48.82,13.9V86.6c-16.7,0-32.76-13.552-49.457-13.552S419.432,86.6,402.733,86.6Z"/>
            <path class="a" d="M404.483,19.18c0,9.092,25.525,18.879,25.525,27.972s-25.525,17.49-25.525,26.582h-7.021c0-9.092,24.888-17.837,24.888-26.93S397.462,28.272,397.462,19.18h7.021Z"/>
            <path class="a" d="M402.733,89.134c16.7,0,34.672-13.9,51.37-13.9s32.122,13.9,48.82,13.9v3.823c-16.7,0-32.758-13.553-49.457-13.553S419.43,92.957,402.733,92.957Z"/>
            <path class="a" d="M402.733,69.92c16.7,0,34.672-13.9,51.372-13.9s32.12,13.9,48.818,13.9v3.822c-16.7,0-32.758-13.551-49.457-13.551S419.43,73.742,402.733,73.742Z"/>
            <path class="a" d="M402.733,76.277c16.7,0,34.674-13.9,51.372-13.9s32.12,13.9,48.82,13.9V80.1c-16.7,0-32.76-13.553-49.457-13.553S419.432,80.1,402.733,80.1Z"/>
            <path class="a" d="M501.694,73.724c.335-9.091-24.825-19.156-24.489-28.247s26.167-17.206,26.5-26.3l3.51.037q1.753.021,3.507.039c-.335,9.091-25.542,17.562-25.877,26.653s24.2,18.8,23.863,27.891l-3.508-.038-3.509-.038Z"/>
            <path class="a" d="M402.733,82.777c16.7,0,34.672-13.9,51.372-13.9s32.12,13.9,48.818,13.9V86.6c-16.7,0-32.758-13.552-49.457-13.552S419.432,86.6,402.733,86.6Z"/>
            <path class="a" d="M404.483,19.18c0,9.092,25.525,18.879,25.525,27.972s-25.525,17.49-25.525,26.582h-7.021c0-9.092,24.888-17.837,24.888-26.93S397.462,28.272,397.462,19.18h7.021Z"/>
            <path class="a" d="M402.733,89.134c16.7,0,34.672-13.9,51.372-13.9s32.12,13.9,48.818,13.9v3.823c-16.7,0-32.758-13.553-49.457-13.553s-34.034,13.553-50.733,13.553Z"/>
            <path class="a" d="M402.733,69.92c16.7,0,34.672-13.9,51.372-13.9s32.12,13.9,48.818,13.9v3.822c-16.7,0-32.758-13.551-49.457-13.551s-34.034,13.551-50.733,13.551Z"/>
            <path class="a" d="M402.733,76.277c16.7,0,34.672-13.9,51.372-13.9s32.12,13.9,48.818,13.9V80.1c-16.7,0-32.758-13.553-49.457-13.553S419.432,80.1,402.733,80.1Z"/>
          </g>
          <g>
            <path class="a" d="M404.668,19.2c-.336,9.078,24.824,19.129,24.488,28.207s-26.167,17.182-26.5,26.26l-3.509-.038-3.508-.038c.335-9.078,25.542-17.537,25.877-26.615s-24.2-18.774-23.863-27.852q1.755.019,3.508.039l3.51.037Z"/>
            <path class="a" d="M503.629,10.165c-16.7,0-34.673,13.88-51.372,13.88s-32.121-13.88-48.82-13.88V6.348c16.7,0,32.759,13.533,49.457,13.533S486.929,6.348,503.629,6.348Z"/>
            <path class="a" d="M501.879,73.672c0-9.079-25.525-18.853-25.525-27.933S501.879,28.274,501.879,19.2h7.02c0,9.079-24.888,17.812-24.888,26.892S508.9,64.593,508.9,73.672h-7.02Z"/>
            <path class="a" d="M503.629,3.817c-16.7,0-34.673,13.879-51.371,13.879S420.136,3.817,403.438,3.817V0c16.7,0,32.758,13.533,49.458,13.533S486.931,0,503.629,0Z"/>
            <path class="a" d="M503.629,23c-16.7,0-34.673,13.879-51.372,13.879S420.136,23,403.438,23V19.187c16.7,0,32.758,13.532,49.458,13.532s34.035-13.532,50.733-13.532Z"/>
            <path class="a" d="M503.629,16.656c-16.7,0-34.675,13.88-51.372,13.88s-32.121-13.88-48.82-13.88V12.839c16.7,0,32.759,13.533,49.457,13.533s34.035-13.533,50.735-13.533Z"/>
            <path class="a" d="M404.668,19.2c-.336,9.078,24.824,19.129,24.488,28.207s-26.167,17.182-26.5,26.26l-3.509-.038-3.508-.038c.335-9.078,25.542-17.537,25.877-26.615s-24.2-18.774-23.863-27.852q1.755.019,3.508.039l3.51.037Z"/>
            <path class="a" d="M503.629,10.165c-16.7,0-34.673,13.88-51.372,13.88s-32.121-13.88-48.819-13.88V6.348c16.7,0,32.758,13.533,49.458,13.533S486.929,6.348,503.629,6.348Z"/>
            <path class="a" d="M501.879,73.672c0-9.079-25.525-18.853-25.525-27.933S501.879,28.274,501.879,19.2h7.02c0,9.079-24.888,17.812-24.888,26.892S508.9,64.593,508.9,73.672h-7.02Z"/>
            <path class="a" d="M503.629,3.817c-16.7,0-34.673,13.879-51.372,13.879S420.136,3.817,403.438,3.817V0c16.7,0,32.758,13.533,49.458,13.533S486.929,0,503.629,0Z"/>
            <path class="a" d="M503.629,23c-16.7,0-34.673,13.879-51.372,13.879S420.136,23,403.438,23V19.187c16.7,0,32.758,13.532,49.458,13.532s34.033-13.532,50.733-13.532Z"/>
            <path class="a" d="M503.629,16.656c-16.7,0-34.673,13.88-51.372,13.88s-32.121-13.88-48.819-13.88V12.839c16.7,0,32.758,13.533,49.458,13.533s34.033-13.533,50.733-13.533Z"/>
          </g>
        </g>
      </g>
      <g>
        <g>
          <g>
            <path class="a" d="M702.73,73.645c-.335-9.073,24.824-19.119,24.489-28.192s-26.168-17.172-26.5-26.245l-3.51.037q-1.753.019-3.507.039c.335,9.073,25.541,17.527,25.876,26.6s-24.2,18.764-23.862,27.837l3.508-.039,3.509-.037Z"/>
            <path class="a" d="M801.69,82.68c-16.7,0-34.672-13.872-51.371-13.872S718.2,82.68,701.5,82.68V86.5c16.7,0,32.759-13.525,49.457-13.525S784.991,86.5,801.69,86.5Z"/>
            <path class="a" d="M799.94,19.208c0,9.074-25.525,18.842-25.525,27.917s25.525,17.456,25.525,26.53h7.02c0-9.074-24.887-17.8-24.887-26.877s24.887-18.5,24.887-27.57h-7.02Z"/>
            <path class="a" d="M801.69,89.025c-16.7,0-34.672-13.872-51.37-13.872S718.2,89.025,701.5,89.025V92.84c16.7,0,32.757-13.526,49.457-13.526S784.993,92.84,801.69,92.84Z"/>
            <path class="a" d="M801.69,69.849c-16.7,0-34.672-13.873-51.371-13.873S718.2,69.849,701.5,69.849v3.814c16.7,0,32.757-13.525,49.457-13.525s34.035,13.525,50.732,13.525Z"/>
            <path class="a" d="M801.69,76.193c-16.7,0-34.674-13.873-51.371-13.873S718.2,76.193,701.5,76.193v3.815c16.7,0,32.759-13.526,49.457-13.526s34.035,13.526,50.734,13.526Z"/>
            <path class="a" d="M702.73,73.645c-.335-9.073,24.824-19.119,24.489-28.192s-26.168-17.172-26.5-26.245l-3.51.037q-1.753.019-3.507.039c.335,9.073,25.541,17.527,25.876,26.6s-24.2,18.764-23.862,27.837l3.508-.039,3.509-.037Z"/>
            <path class="a" d="M801.69,82.68c-16.7,0-34.672-13.872-51.371-13.872S718.2,82.68,701.5,82.68V86.5c16.7,0,32.757-13.525,49.457-13.525S784.991,86.5,801.69,86.5Z"/>
            <path class="a" d="M799.94,19.208c0,9.074-25.525,18.842-25.525,27.917s25.525,17.456,25.525,26.53h7.02c0-9.074-24.887-17.8-24.887-26.877s24.887-18.5,24.887-27.57h-7.02Z"/>
            <path class="a" d="M801.69,89.025c-16.7,0-34.672-13.872-51.371-13.872S718.2,89.025,701.5,89.025V92.84c16.7,0,32.757-13.526,49.457-13.526S784.991,92.84,801.69,92.84Z"/>
            <path class="a" d="M801.69,69.849c-16.7,0-34.672-13.873-51.371-13.873S718.2,69.849,701.5,69.849v3.814c16.7,0,32.757-13.525,49.457-13.525s34.033,13.525,50.732,13.525Z"/>
            <path class="a" d="M801.69,76.193c-16.7,0-34.672-13.873-51.371-13.873S718.2,76.193,701.5,76.193v3.815c16.7,0,32.757-13.526,49.457-13.526s34.033,13.526,50.732,13.526Z"/>
          </g>
          <g>
            <path class="a" d="M799.755,19.233c.335,9.06-24.824,19.092-24.488,28.152s26.167,17.148,26.5,26.208l3.51-.038,3.508-.038c-.336-9.06-25.542-17.5-25.877-26.562s24.2-18.738,23.862-27.8l-3.507.038-3.51.038Z"/>
            <path class="a" d="M700.8,10.211c16.7,0,34.673,13.852,51.372,13.852s32.12-13.852,48.819-13.852V6.4c-16.7,0-32.759,13.506-49.456,13.506S717.494,6.4,700.8,6.4Z"/>
            <path class="a" d="M702.545,73.593c0-9.061,25.525-18.816,25.525-27.878s-25.525-17.431-25.525-26.492h-7.02c0,9.061,24.888,17.777,24.888,26.839s-24.888,18.47-24.888,27.531h7.02Z"/>
            <path class="a" d="M700.8,3.875c16.7,0,34.673,13.852,51.37,13.852S784.287,3.875,800.984,3.875V.065c-16.7,0-32.757,13.507-49.456,13.507S717.492.065,700.8.065Z"/>
            <path class="a" d="M700.8,23.024c16.7,0,34.673,13.853,51.372,13.853s32.12-13.853,48.817-13.853V19.215c-16.7,0-32.757,13.506-49.456,13.506S717.492,19.215,700.8,19.215Z"/>
            <path class="a" d="M700.8,16.689c16.7,0,34.674,13.853,51.372,13.853s32.12-13.853,48.819-13.853v-3.81c-16.7,0-32.759,13.507-49.456,13.507S717.494,12.879,700.8,12.879Z"/>
            <path class="a" d="M799.755,19.233c.335,9.06-24.824,19.092-24.488,28.152s26.167,17.148,26.5,26.208l3.51-.038,3.508-.038c-.336-9.06-25.542-17.5-25.877-26.562s24.2-18.738,23.862-27.8l-3.507.038-3.51.038Z"/>
            <path class="a" d="M700.8,10.211c16.7,0,34.673,13.852,51.372,13.852s32.12-13.852,48.817-13.852V6.4c-16.7,0-32.757,13.506-49.456,13.506S717.494,6.4,700.8,6.4Z"/>
            <path class="a" d="M702.545,73.593c0-9.061,25.525-18.816,25.525-27.878s-25.525-17.431-25.525-26.492h-7.02c0,9.061,24.888,17.777,24.888,26.839s-24.888,18.47-24.888,27.531h7.02Z"/>
            <path class="a" d="M700.8,3.875c16.7,0,34.673,13.852,51.372,13.852s32.12-13.852,48.817-13.852V.065c-16.7,0-32.757,13.507-49.456,13.507S717.494.065,700.8.065Z"/>
            <path class="a" d="M700.8,23.024c16.7,0,34.673,13.853,51.372,13.853s32.12-13.853,48.817-13.853V19.215c-16.7,0-32.757,13.506-49.456,13.506S717.494,19.215,700.8,19.215Z"/>
            <path class="a" d="M700.8,16.689c16.7,0,34.673,13.853,51.372,13.853s32.12-13.853,48.817-13.853v-3.81c-16.7,0-32.757,13.507-49.456,13.507S717.494,12.879,700.8,12.879Z"/>
          </g>
        </g>
        <g>
          <g>
            <path class="a" d="M700.322,73.724c.336-9.091-24.824-19.156-24.488-28.247s26.167-17.206,26.5-26.3l3.51.038,3.508.038c-.336,9.091-25.542,17.562-25.877,26.653s24.2,18.8,23.862,27.892l-3.507-.039-3.51-.038Z"/>
            <path class="a" d="M601.362,82.777c16.7,0,34.673-13.9,51.372-13.9s32.12,13.9,48.819,13.9V86.6c-16.7,0-32.759-13.551-49.456-13.551S618.061,86.6,601.362,86.6Z"/>
            <path class="a" d="M603.112,19.18c0,9.092,25.525,18.88,25.525,27.973s-25.525,17.49-25.525,26.581h-7.02c0-9.091,24.888-17.836,24.888-26.929S596.092,28.272,596.092,19.18h7.02Z"/>
            <path class="a" d="M601.362,89.134c16.7,0,34.673-13.9,51.37-13.9s32.122,13.9,48.819,13.9v3.823c-16.7,0-32.757-13.553-49.456-13.553s-34.036,13.553-50.733,13.553Z"/>
            <path class="a" d="M601.362,69.921c16.7,0,34.673-13.9,51.372-13.9s32.12,13.9,48.817,13.9v3.822c-16.7,0-32.757-13.552-49.456-13.552s-34.036,13.552-50.733,13.552Z"/>
            <path class="a" d="M601.362,76.277c16.7,0,34.674-13.9,51.372-13.9s32.12,13.9,48.819,13.9V80.1c-16.7,0-32.759-13.553-49.456-13.553S618.061,80.1,601.362,80.1Z"/>
            <path class="a" d="M700.322,73.724c.336-9.091-24.824-19.156-24.488-28.247s26.167-17.206,26.5-26.3l3.51.038,3.508.038c-.336,9.091-25.542,17.562-25.877,26.653s24.2,18.8,23.862,27.892l-3.507-.039-3.51-.038Z"/>
            <path class="a" d="M601.362,82.777c16.7,0,34.673-13.9,51.372-13.9s32.12,13.9,48.817,13.9V86.6c-16.7,0-32.757-13.551-49.456-13.551S618.061,86.6,601.362,86.6Z"/>
            <path class="a" d="M603.112,19.18c0,9.092,25.525,18.88,25.525,27.973s-25.525,17.49-25.525,26.581h-7.02c0-9.091,24.888-17.836,24.888-26.929S596.092,28.272,596.092,19.18h7.02Z"/>
            <path class="a" d="M601.362,89.134c16.7,0,34.673-13.9,51.372-13.9s32.12,13.9,48.817,13.9v3.823c-16.7,0-32.757-13.553-49.456-13.553s-34.034,13.553-50.733,13.553Z"/>
            <path class="a" d="M601.362,69.921c16.7,0,34.673-13.9,51.372-13.9s32.12,13.9,48.817,13.9v3.822c-16.7,0-32.757-13.552-49.456-13.552s-34.034,13.552-50.733,13.552Z"/>
            <path class="a" d="M601.362,76.277c16.7,0,34.673-13.9,51.372-13.9s32.12,13.9,48.817,13.9V80.1c-16.7,0-32.757-13.553-49.456-13.553S618.061,80.1,601.362,80.1Z"/>
          </g>
          <g>
            <path class="a" d="M603.3,19.206c-.335,9.078,24.824,19.129,24.489,28.207s-26.168,17.181-26.5,26.259l-3.51-.037q-1.753-.021-3.507-.039c.335-9.078,25.541-17.537,25.877-26.614s-24.2-18.775-23.863-27.853l3.508.039,3.509.038Z"/>
            <path class="a" d="M702.257,10.165c-16.7,0-34.672,13.88-51.371,13.88s-32.121-13.88-48.82-13.88V6.349c16.7,0,32.76,13.532,49.457,13.532S685.558,6.349,702.257,6.349Z"/>
            <path class="a" d="M700.507,73.672c0-9.079-25.524-18.852-25.524-27.932S700.507,28.274,700.507,19.2h7.02c0,9.079-24.887,17.812-24.887,26.892s24.887,18.506,24.887,27.585h-7.02Z"/>
            <path class="a" d="M702.257,3.817c-16.7,0-34.672,13.879-51.369,13.879S618.765,3.817,602.068,3.817V0c16.7,0,32.758,13.534,49.457,13.534S685.56,0,702.257,0Z"/>
            <path class="a" d="M702.257,23c-16.7,0-34.672,13.88-51.371,13.88S618.765,23,602.068,23V19.187c16.7,0,32.758,13.533,49.457,13.533s34.035-13.533,50.732-13.533Z"/>
            <path class="a" d="M702.257,16.656c-16.7,0-34.674,13.88-51.371,13.88s-32.121-13.88-48.82-13.88V12.839c16.7,0,32.76,13.533,49.457,13.533s34.035-13.533,50.734-13.533Z"/>
            <path class="a" d="M603.3,19.206c-.335,9.078,24.824,19.129,24.489,28.207s-26.168,17.181-26.5,26.259l-3.51-.037q-1.753-.021-3.507-.039c.335-9.078,25.541-17.537,25.877-26.614s-24.2-18.775-23.863-27.853l3.508.039,3.509.038Z"/>
            <path class="a" d="M702.257,10.165c-16.7,0-34.672,13.88-51.371,13.88s-32.121-13.88-48.818-13.88V6.349c16.7,0,32.758,13.532,49.457,13.532S685.558,6.349,702.257,6.349Z"/>
            <path class="a" d="M700.507,73.672c0-9.079-25.524-18.852-25.524-27.932S700.507,28.274,700.507,19.2h7.02c0,9.079-24.887,17.812-24.887,26.892s24.887,18.506,24.887,27.585h-7.02Z"/>
            <path class="a" d="M702.257,3.817c-16.7,0-34.672,13.879-51.371,13.879S618.765,3.817,602.068,3.817V0c16.7,0,32.758,13.534,49.457,13.534S685.558,0,702.257,0Z"/>
            <path class="a" d="M702.257,23c-16.7,0-34.672,13.88-51.371,13.88S618.765,23,602.068,23V19.187c16.7,0,32.758,13.533,49.457,13.533s34.033-13.533,50.732-13.533Z"/>
            <path class="a" d="M702.257,16.656c-16.7,0-34.672,13.88-51.371,13.88s-32.121-13.88-48.818-13.88V12.839c16.7,0,32.758,13.533,49.457,13.533s34.033-13.533,50.732-13.533Z"/>
          </g>
        </g>
      </g>
    </g>
  </g>
</svg>
