<svg xmlns="http://www.w3.org/2000/svg" width="91.8" height="175.384" viewBox="0 0 91.8 175.384">
  <defs>
    <style>
      .a {
        fill-rule: evenodd;
      }
    </style>
  </defs>
  <g>
    <path class="a" d="M14.317,73.432v.1c0,.518.234.69.518.69a1.153,1.153,0,0,0,.832-.446A13.836,13.836,0,0,0,16.752,69.1c0-1.075-.3-1.907-1.258-1.907a1.456,1.456,0,0,0-.284.02,5.37,5.37,0,0,0-1.552.558,10.8,10.8,0,0,0-4.443,4.484A2.707,2.707,0,0,0,8.9,73.462a2.414,2.414,0,0,0,1.583,2.049,8.592,8.592,0,0,0,1.592.568,6.833,6.833,0,0,0-.892.376A20.33,20.33,0,0,0,6.2,80.472C4.68,82.115,3.524,83.921,3.524,85.28c0,.051.01.112.01.163A1.608,1.608,0,0,0,5.36,87.106c3.885,0,12.741-6.543,14.05-7.2a.119.119,0,0,0,.061-.112c0-.193-.213-.537-.426-.537a.182.182,0,0,0-.132.05C17.9,80.076,8.981,86.873,5.4,86.873a1.3,1.3,0,0,1-1.48-1.319v-.142c0-1.238,1.146-3.063,2.607-4.646a19.761,19.761,0,0,1,4.859-3.916,3.652,3.652,0,0,1,1.278-.436c.426-.03.609-.122.609-.294v-.01c-.011-.193-.244-.254-.609-.335a9.336,9.336,0,0,1-1.978-.669,1.969,1.969,0,0,1-1.319-1.684,2.1,2.1,0,0,1,.254-.964,10.337,10.337,0,0,1,4.24-4.291,4.711,4.711,0,0,1,1.42-.507,1.4,1.4,0,0,1,.213-.021c.619,0,.822.508.822,1.187a10.336,10.336,0,0,1-.852,3.368,3.377,3.377,0,0,1-1.147,1.238ZM12.826,76.14v.031c-.01,0-.02-.021-.04-.061a.037.037,0,0,1,.03-.01c.01,0,.01.01.01.04Zm7.365.041a37.664,37.664,0,0,0,4.078-.609c1.653-2.779,3.419-5.63,4.108-6a.482.482,0,0,1,.3-.1.5.5,0,0,1,.507.528.638.638,0,0,1-.01.132,27.2,27.2,0,0,1-1.512,4.981c.781-.071,4.494-.578,5.539-.578a1.072,1.072,0,0,1,.244.02.257.257,0,0,1,.071.172c0,.345-.792.639-.8.649a.257.257,0,0,1-.111.031.267.267,0,0,1-.264-.254.433.433,0,0,1,.02-.111s-2.465.04-4.778.324c-.03.051-.071.122-.112.2-.6,1.41-3.144,8.694-3.144,12.072,0,1.035.233,1.7.832,1.735a.172.172,0,0,1,.182.172.223.223,0,0,1-.193.233.127.127,0,0,1-.06-.01c-.619-.243-.863-1.2-.863-2.526,0-3.51,1.694-9.6,2.5-11.767-.7.04-1.491.122-2.293.223-1.319,2.282-2.333,4.605-3.55,6.878a2.09,2.09,0,0,1,.274,1A1.75,1.75,0,0,1,20,85.2a1.5,1.5,0,0,1-.639.213.244.244,0,0,1-.152-.051.282.282,0,0,1-.1-.253,6.914,6.914,0,0,1,1.248-2.617c-.405-1-1.319-1.958-1.319-3.023v-.031A1.885,1.885,0,0,1,20.7,77.6a1.078,1.078,0,0,1,.355.061c.355.112.477.446.477.842a5.325,5.325,0,0,1-.446,1.735c-.031.1-.173.162-.315.162-.172,0-.345-.081-.345-.244v-.03a5.511,5.511,0,0,0,.528-.812,2.5,2.5,0,0,0,.274-.984c0-.243-.071-.426-.274-.487a.684.684,0,0,0-.213-.03,1.613,1.613,0,0,0-1.42,1.359v.041c0,1.146.841,1.816,1.3,2.779.487-.9,1.988-3.611,3.55-6.248-1.785.233-3.56.527-4.372.527-.274,0-.436-.03-.466-.111,0-.021-.01-.041-.01-.061,0-.153.2-.3.324-.325h.03c.142,0,.437.061.437.3a.519.519,0,0,1-.02.1Zm4.342-.649c.71-.122,1.481-.234,2.3-.335l.021-.01a33.725,33.725,0,0,0,1.379-4.768c0-.061-.02-.1-.04-.1a.065.065,0,0,0-.051.021,25.065,25.065,0,0,0-3.611,5.194Zm-4,7.456a10.837,10.837,0,0,0-.954,1.937,1.506,1.506,0,0,0,1.076-1.38,1.42,1.42,0,0,0-.122-.557Zm9.292-4.109a.283.283,0,0,0,.01-.091.405.405,0,0,0-.426-.365.4.4,0,0,0-.375.243,4.51,4.51,0,0,0-.528,1.887,1.021,1.021,0,0,0,.386.913.694.694,0,0,0,.537.152c1.694,0,6.371-2.039,6.381-2.039a.074.074,0,0,0,.02-.061.306.306,0,0,0-.314-.243.355.355,0,0,0-.223.081s-4.494,1.938-5.681,1.938a.381.381,0,0,1-.233-.051.53.53,0,0,1-.2-.477,5.431,5.431,0,0,1,.649-1.887Zm.365-2.374a.226.226,0,0,0-.081-.01.5.5,0,0,0-.416.355.538.538,0,0,0-.041.213.373.373,0,0,0,.214.366.28.28,0,0,0,.091.01.476.476,0,0,0,.4-.355.521.521,0,0,0,.041-.213.372.372,0,0,0-.213-.366Zm5.985,2.151A35.21,35.21,0,0,1,38.1,74a9,9,0,0,1,.883-1.289c.233-.263.416-.426.518-.426h.01c.02,0,.04.031.071.092a.38.38,0,0,1,.02.121c0,1.076-2.79,5.58-3.419,6.158Zm-.314.913a20.535,20.535,0,0,0-1.126,5.143,1.76,1.76,0,0,0,.112.71.476.476,0,0,0,.436.315c1.491,0,5.315-6.138,5.326-6.158a.4.4,0,0,1,.3-.213c.111,0,.192.081.192.223v.01c-.01.021-4.017,6.28-5.853,6.28a.717.717,0,0,1-.659-.467,2.376,2.376,0,0,1-.142-.953c0-2.658,1.968-8.785,3.317-10.642a9.778,9.778,0,0,1,.923-1.349c.315-.355.6-.558.832-.558h.01a.445.445,0,0,1,.386.335,1.167,1.167,0,0,1,.061.395c0,1.826-2.892,6.107-4.119,6.929Zm5.671-1a4.563,4.563,0,0,0-1.1,1.491,3.582,3.582,0,0,0-.3,1.288.74.74,0,0,0,.4.761.51.51,0,0,0,.224.041.907.907,0,0,0,.476-.153,3.775,3.775,0,0,0,1.1-2.779,3.646,3.646,0,0,0,1.227.284q.792.061,1.339.061a7.083,7.083,0,0,0,1.238-.081.239.239,0,0,0,.142-.234.176.176,0,0,0-.172-.192h-.051a5.586,5.586,0,0,1-1.623.172c-.284,0-.609-.01-.964-.04a1.711,1.711,0,0,1-1.248-.518.677.677,0,0,0-.365-.507.447.447,0,0,0-.1-.02.244.244,0,0,0-.162.061.234.234,0,0,0-.092.192.327.327,0,0,0,.02.132.081.081,0,0,0,.021.041Zm.213.284a4.216,4.216,0,0,0-.954,1.42,3.6,3.6,0,0,0-.243,1.085c0,.173.03.305.142.345a.129.129,0,0,0,.061.01c.476,0,1.065-2.181,1.065-2.738V78.91a.454.454,0,0,1-.071-.061Zm24.407-8.278c-.162,1.319,0,2.455-.233,4.139-.386.74-3.855,8.389-3.855,10.844,0,.477.132.761.436.761h.031a.884.884,0,0,0,.557-.365c1.258-1.42,2.74-6.614,3.277-10.459,1.552-3.013,3.3-5.549,5.316-6.594a2.009,2.009,0,0,1,.933-.314c.548,0,.771.507.771,1.318,0,3.419-3.946,12.316-3.956,12.356v.051a.279.279,0,0,0,.253.284.152.152,0,0,0,.163-.122c.344,0,4.575-7.821,6.969-8.065h.061c.466,0,.639.487.639,1.258,0,2.334-1.583,7.274-1.583,9.4a1.579,1.579,0,0,0,.153.812.161.161,0,0,0,.162.142.3.3,0,0,0,.284-.264.222.222,0,0,0-.041-.132,1.348,1.348,0,0,1-.142-.72c0-1.958,1.633-6.655,1.633-9.242,0-1.065-.284-1.765-1.065-1.765h-.051c-1.765.153-4.209,3.358-5.812,5.752,1.339-2.861,2.759-6.928,2.759-9.343,0-1.217-.365-2.008-1.288-2.008a3.374,3.374,0,0,0-1.461.446c-1.856.964-3.206,2.617-4.7,5.275.112-.872.061-1.694.152-3.074v-.061c0-.263-.121-.517-.233-.517-.061,0-.1.061-.132.2ZM62.96,85.777c-.142.163-.234.234-.3.234s-.081-.071-.081-.193c0-1.349,3.257-9.313,3.327-9.455-.588,3.51-1.825,7.842-2.941,9.414Zm17.752-6.9a.283.283,0,0,0,.01-.091.405.405,0,0,0-.426-.365.4.4,0,0,0-.375.243,4.51,4.51,0,0,0-.528,1.887,1.024,1.024,0,0,0,.386.913.7.7,0,0,0,.538.152c1.694,0,6.37-2.039,6.38-2.039a.072.072,0,0,0,.021-.061.306.306,0,0,0-.315-.243.355.355,0,0,0-.223.081s-4.494,1.938-5.681,1.938a.385.385,0,0,1-.233-.051.533.533,0,0,1-.2-.477,5.431,5.431,0,0,1,.649-1.887Zm.366-2.374A.231.231,0,0,0,81,76.5a.5.5,0,0,0-.416.355.536.536,0,0,0-.04.213.372.372,0,0,0,.213.366.283.283,0,0,0,.091.01.478.478,0,0,0,.406-.355.536.536,0,0,0,.04-.213.373.373,0,0,0-.212-.366Zm5.985,2.06a.081.081,0,0,1-.021-.041.327.327,0,0,1-.02-.132.234.234,0,0,1,.092-.192.244.244,0,0,1,.162-.061.447.447,0,0,1,.1.02.675.675,0,0,1,.365.507,1.711,1.711,0,0,0,1.248.518c.355.03.68.04.964.04a5.586,5.586,0,0,0,1.623-.172h.051a.176.176,0,0,1,.172.192.239.239,0,0,1-.142.234,7.076,7.076,0,0,1-1.237.081q-.549,0-1.34-.061a3.652,3.652,0,0,1-1.227-.284,3.775,3.775,0,0,1-1.1,2.779.907.907,0,0,1-.476.153.505.505,0,0,1-.223-.041.74.74,0,0,1-.4-.761,3.582,3.582,0,0,1,.3-1.288,4.563,4.563,0,0,1,1.1-1.491Zm.213.284a.454.454,0,0,0,.071.061v.061c0,.557-.589,2.738-1.065,2.738a.129.129,0,0,1-.061-.01c-.112-.04-.142-.172-.142-.345a3.6,3.6,0,0,1,.243-1.085A4.216,4.216,0,0,1,87.276,78.849Z"/>
    <path class="a" d="M47.938,62.985a1.741,1.741,0,0,1-.677.248,1.577,1.577,0,0,1-.693.092c-.141-2.831-.282-5.66-1.765-6.61a2.828,2.828,0,0,0-2.352-.254A20.917,20.917,0,0,0,38.176,58.4c-2.072,1.158-4.4,2.671-6.568,4.085-1.637,1.066-3.19,2.078-4.487,2.841a13.46,13.46,0,0,1-4.55,1.871c-1,.16-1.572-.128-1.725-.95a10.134,10.134,0,0,1,.457-3.763c.423-1.664,1.084-3.683,1.887-5.911.774-2.145,1.68-4.484,2.608-6.768,1.009-2.482,2.041-4.9,2.959-6.934.884-1.962,1.667-3.585,2.432-4.911A13.294,13.294,0,0,1,33.5,34.869,7.6,7.6,0,0,1,36.38,33.2h0a13.524,13.524,0,0,1,3.981-.674,38.8,38.8,0,0,1,3.914.177h.011c.912.071,1.81.141,2.636.162a9.09,9.09,0,0,0,2.1-.108,2.12,2.12,0,0,0,.741-.36,23.589,23.589,0,0,1-2.4-.852c-.756-.306-1.624-.682-2.553-1.085A54.915,54.915,0,0,0,34.857,26.9a21.49,21.49,0,0,0-2.309-.351c-.524.492-1.026.949-1.507,1.362A17.679,17.679,0,0,1,27.7,30.264a9.208,9.208,0,0,1-4.093,1.108,5.585,5.585,0,0,1-2.483-.528c-.713-.346-1.2-.817-1.254-1.263s.328-.86,1.068-1.261a17.212,17.212,0,0,1,3.685-1.283,30.153,30.153,0,0,1,5.423-.909c.632-.043,1.287-.063,1.963-.053.675-.651,1.378-1.346,2.111-2.069,1.328-1.312,2.751-2.717,4.227-4.086,1.586-1.47,3.279-2.943,4.946-4.327,1.164-.966,2.314-1.887,3.4-2.732-.184-.594-.347-1.166-.481-1.693a15.014,15.014,0,0,1-.493-2.97A7.711,7.711,0,0,1,45.917,6a5.159,5.159,0,0,1,.836-1.895,6.264,6.264,0,0,1,2.011-1.719A17.175,17.175,0,0,1,53.072.735,10.867,10.867,0,0,1,57.011.368a3.577,3.577,0,0,1,2.41,1.4,5.892,5.892,0,0,1,.954,2.11A11.185,11.185,0,0,1,63.09,2.82h0C64.91,2.3,67.5,1.727,70.19,1.242l.026,0C72.743.783,75.4.393,77.577.185A29.421,29.421,0,0,1,82.9.076a10.9,10.9,0,0,1,3.355.782,6.12,6.12,0,0,1,2.216,1.517,5.148,5.148,0,0,1,1.179,2.359,6.744,6.744,0,0,1-.179,3.572,8.184,8.184,0,0,1-2.045,3.229,21.556,21.556,0,0,1-4.76,3.354c-1.915,1.06-4.069,2.062-6.194,3-1.5.666-2.979,1.294-4.375,1.889-2.542,1.083-4.828,2.057-6.459,2.9a15.248,15.248,0,0,0-2.876,1.841,18.112,18.112,0,0,0-2.09,2.132l-.483.56c-.394.458-.814.945-1.25,1.431a3.151,3.151,0,0,0,1.318,1.04,4.955,4.955,0,0,0,2.171.306,27.965,27.965,0,0,0,3.3-.469c1.1-.2,2.181-.393,3.086-.468a3.63,3.63,0,0,1,2.291.366A6.322,6.322,0,0,1,72.989,31.6a32.467,32.467,0,0,1,2.672,5.565,40.656,40.656,0,0,1,1.809,6.367,62.462,62.462,0,0,1,.978,7.91,81.135,81.135,0,0,1,.109,8.767,18.154,18.154,0,0,1-.669,4.775A2.855,2.855,0,0,1,75,66.9a8.351,8.351,0,0,1-3.642-1.355,26.486,26.486,0,0,0-2.514-1.225,5.572,5.572,0,0,0-3.032-.521c-.644.126-1.491.739-2.664,2.111a41.887,41.887,0,0,0-3.328,4.913c-1.42,2.309-2.762,4.491-3.843,5.146-1.672,1.012-2.742.561-3.5-1-.865.973-1.725,1.895-2.564,2.754-1.257,1.287-2.475,2.435-3.6,3.5-3.671,3.463-6.39,6.028-6.614,9.737-.146,2.425.772,5.343,2.435,8.737a114.926,114.926,0,0,0,6.905,11.6c.847,1.3,1.733,2.634,2.643,4.008,5.17,7.809,11.112,16.784,15.221,25.944,4.83,10.769,7.125,21.794,9.42,32.817h0a3.268,3.268,0,0,1-1.376.343h0c-2.295-11.023-4.59-22.046-9.42-32.814-4.106-9.156-10.049-18.131-15.22-25.942-.909-1.374-1.8-2.712-2.643-4.008a115.053,115.053,0,0,1-6.905-11.6c-1.664-3.4-2.583-6.316-2.436-8.746.224-3.724,2.949-6.3,6.628-9.766,1.123-1.059,2.337-2.2,3.6-3.5,1.166-1.193,2.37-2.507,3.574-3.908a58.389,58.389,0,0,1-1.759-6.667c-.7-3.129-1.511-6.9-2.158-10.461a68.726,68.726,0,0,1-1.2-9.275,8.273,8.273,0,0,1,.471-3.59,1.433,1.433,0,0,1,.65-.7,2.549,2.549,0,0,1,2.007-.29,2.834,2.834,0,0,1,1.1,1,24.246,24.246,0,0,1,2.2,4.593,21,21,0,0,0,1.527,3.317c.185.271-.04.709.078.578a12.377,12.377,0,0,0,1.566-3.03l.491-1.187c1.14-2.775,2.589-6.3,4.276-8.262a5.562,5.562,0,0,1,2.643-1.764,4.333,4.333,0,0,1,1.855-.223,1.877,1.877,0,0,1,.876.43,3.748,3.748,0,0,1,1.04,1.846A17.533,17.533,0,0,1,67.77,47.9a37.149,37.149,0,0,1-2.937,9.029,66.731,66.731,0,0,1-6.24,10.4c-1.627,2.267-3.361,4.461-5.092,6.475q.1.263.2.5c.549,1.3.883,2,.972,1.945,1.034-.625,2.37-2.8,3.782-5.094a42.045,42.045,0,0,1,3.333-4.921,7.788,7.788,0,0,1,4.558-2.706,6.591,6.591,0,0,1,3.856.439,26.391,26.391,0,0,1,2.52,1.228,8.539,8.539,0,0,0,3.456,1.341c.059,0,.048-.38.341-1.211a18.09,18.09,0,0,0,.671-4.77,81.334,81.334,0,0,0-.108-8.765,62.345,62.345,0,0,0-.979-7.907,40.683,40.683,0,0,0-1.807-6.365,32.4,32.4,0,0,0-2.672-5.561,6.264,6.264,0,0,0-1.88-2.178,3.2,3.2,0,0,0-2.048-.355c-.725.06-1.67.23-2.64.405a31.606,31.606,0,0,1-3.812.537,5.374,5.374,0,0,1-2.339-.318,3.107,3.107,0,0,1-.807-.494,13.159,13.159,0,0,1-2.631,2.21,6.561,6.561,0,0,1-4.127.952,7.783,7.783,0,0,1-1.085-.183A8.011,8.011,0,0,1,49.1,32.9a12.491,12.491,0,0,1-3.437.34c-.856-.021-1.756-.092-2.67-.163h-.012c-1.293-.1-2.618-.205-3.834-.175a7.515,7.515,0,0,0-1.979.237,6.209,6.209,0,0,0-2.314,1.421,13.2,13.2,0,0,0-2.3,3.078c-.757,1.311-1.54,2.935-2.428,4.906-.924,2.051-1.957,4.467-2.959,6.933-.931,2.29-1.837,4.629-2.609,6.767-.8,2.234-1.466,4.253-1.887,5.909a10.136,10.136,0,0,0-.458,3.755c.143.77.531,1.063,1.173.961A13.59,13.59,0,0,0,25.824,65.6c1.29-.76,2.837-1.767,4.467-2.829,2.187-1.424,4.526-2.947,6.6-4.1a24.025,24.025,0,0,1,5.278-2.289c1.815-.492,3.185-.535,4-.016,1.493.957,1.635,3.791,1.775,6.626Zm3.8-31.486a3.085,3.085,0,0,1-.6.546,8.358,8.358,0,0,0,1.5.292,2.421,2.421,0,0,0,1.53-.312,15.982,15.982,0,0,0,3.393-3.049l-.046-.062a4.666,4.666,0,0,1-.792-1.9,9.218,9.218,0,0,1-.006-2.957c.174-1.275.553-2.81.967-4.486.37-1.5.768-3.11,1.071-4.737.224-1.2.4-2.42.512-3.6a42.73,42.73,0,0,1-1.543,5.886,12.332,12.332,0,0,1-1.814,3.418,4.863,4.863,0,0,1-2.471,1.636c-.051,1.19-.113,2.339-.2,3.425a25.036,25.036,0,0,1-.443,3.426A5.874,5.874,0,0,1,51.738,31.5Zm-1.36.311a5.848,5.848,0,0,0,1.047-2.454,25.032,25.032,0,0,0,.444-3.423c.088-1.146.153-2.35.2-3.59a2.278,2.278,0,0,1-1.361-.744,10.382,10.382,0,0,1-1.618-2.571c-.543-1.116-1.109-2.481-1.614-3.861-.208-.569-.407-1.142-.589-1.7-.734.583-1.488,1.2-2.249,1.826-1.653,1.372-3.342,2.842-4.936,4.32-1.523,1.412-2.922,2.794-4.228,4.084-.865.854-1.69,1.669-2.471,2.415a21.948,21.948,0,0,1,3.18.42,55,55,0,0,1,9.98,3.572c.912.4,1.765.765,2.552,1.084.6.244,1.154.452,1.659.622Zm3.079-10.145-.014.341A1.175,1.175,0,0,0,53.575,22a10.56,10.56,0,0,0,.968-1.142,12.262,12.262,0,0,0,1.806-3.405A60.873,60.873,0,0,0,58.511,8.3l.193-1.05a10.53,10.53,0,0,1,.508-2.029l0-.022a6.89,6.89,0,0,0-1.156-3.086A3.507,3.507,0,0,0,55.694.737,6.88,6.88,0,0,0,53.061.9a11.977,11.977,0,0,0-3,1.221,6.078,6.078,0,0,0-1.944,1.666,5.128,5.128,0,0,0-.828,1.882A7.7,7.7,0,0,0,47.1,7.86a15.092,15.092,0,0,0,.493,2.967c.09.355.193.73.307,1.119l.621-.465c1.235-.916,2.344-1.693,3.26-2.31,1.29-.868,2.2-1.419,2.539-1.593l.108-.054a.962.962,0,0,1,.316-.15c.616-.278.941-.327,1.035-.141.013.026-.048.1-.152.239a7.469,7.469,0,0,0-1.266,2.3c-.62,1.872-.7,4.744-.767,7.563l0,.12c-.037,1.43-.076,2.843-.129,4.208Zm-1.344-.383c.04-1.14.072-2.308.1-3.488l0-.12c.073-2.824.147-5.7.765-7.568A7.232,7.232,0,0,1,53.8,8.421l-.7.468c-.9.609-2.007,1.381-3.245,2.3-.567.421-1.163.873-1.777,1.349.229.74.492,1.515.774,2.285.5,1.378,1.07,2.742,1.614,3.86a10.29,10.29,0,0,0,1.617,2.565l.033.034ZM29.69,28.213c.606-.521,1.241-1.105,1.9-1.737a22.615,22.615,0,0,0-2.69.021,22.954,22.954,0,0,0-4.164.672,11.524,11.524,0,0,0-2.521.895c-.677.367-1.022.759-.975,1.177.05.439.533.9,1.239,1.245A5.3,5.3,0,0,0,24.829,31a3.769,3.769,0,0,0,1.617-.489,17.318,17.318,0,0,0,3.244-2.3Zm28.8-.3.818-.949a18.21,18.21,0,0,1,2.1-2.147,15.789,15.789,0,0,1,2.96-1.894c1.673-.863,3.992-1.851,6.571-2.95,1.4-.595,2.874-1.224,4.344-1.875,2.091-.924,4.21-1.909,6.093-2.951a21.271,21.271,0,0,0,4.687-3.3A8.132,8.132,0,0,0,88.1,8.638a6.726,6.726,0,0,0,.182-3.563A5.113,5.113,0,0,0,87.1,2.725a6.084,6.084,0,0,0-2.2-1.507,10.74,10.74,0,0,0-3.3-.77,28.222,28.222,0,0,0-5.106.1c-2.066.2-4.572.565-6.954.994l-.017,0c-2.353.424-4.539.9-5.973,1.311a4.828,4.828,0,0,0-2.534,1.313,2.776,2.776,0,0,0-.431.722,21.517,21.517,0,0,1,.174,4.312,39.554,39.554,0,0,1-.634,5.3c-.3,1.641-.7,3.247-1.07,4.739-.415,1.68-.8,3.218-.967,4.484a9.215,9.215,0,0,0,0,2.951,5.029,5.029,0,0,0,.4,1.24ZM51.738,67.122c.517,2.3.979,4.258,1.449,5.754,1.379-1.662,2.746-3.424,4.042-5.23a66.828,66.828,0,0,0,6.236-10.39A37.172,37.172,0,0,0,66.4,48.235a17.554,17.554,0,0,0,.027-7.456,3.723,3.723,0,0,0-1.038-1.835,1.8,1.8,0,0,0-.838-.415c-.177-.034.055-.142-.072-.106a4.4,4.4,0,0,0-1.738,1.411c-1.674,1.947-3.123,5.471-4.263,8.246l-.491,1.187a12.361,12.361,0,0,1-1.578,3.047C55.34,53.5,54.445,53.633,53.6,52.4a21.112,21.112,0,0,1-1.527-3.32,24.138,24.138,0,0,0-2.2-4.589,3.189,3.189,0,0,0-.906-.892,2.361,2.361,0,0,0-.118.215,8.26,8.26,0,0,0-.468,3.579,68.521,68.521,0,0,0,1.2,9.273c.648,3.572,1.455,7.336,2.157,10.46ZM49.359,43.2l-.065.036C49.447,43.164,49.534,43.121,49.359,43.2Z"/>
    <path d="M65.238,103.177a45.537,45.537,0,0,0-1.658-9.09c-.644-2.236-1.467-4.505-2.248-6.661A67.628,67.628,0,0,1,59.163,80.8l.029-.06c1.372-2.894,2.371-5,2.234-5.914a.576.576,0,0,0-.366-.5,2.961,2.961,0,0,0-1.587.238l-.14.051a2.349,2.349,0,0,0-.7.417,4.6,4.6,0,0,0-1.221,3.7,13.031,13.031,0,0,0,.38,2.4c-.63,1.329-1.336,2.82-2.008,4.345-1.466,3.329-2.961,7.211-4.584,11.427-.87,2.258-1.777,4.614-2.743,7.048-1.38,3.478-2.869,7.085-4.625,10.729a88.948,88.948,0,0,1-6.292,11.078,96.645,96.645,0,0,1-8.815,11.121,161.728,161.728,0,0,1-11.655,11.461C11.938,152.945,6.108,157.73,0,162.588v.772c6.6-5.226,12.907-10.376,18.42-15.321a161.943,161.943,0,0,0,11.663-11.47,96.735,96.735,0,0,0,8.825-11.13A89.174,89.174,0,0,0,45.2,114.357c1.771-3.676,3.257-7.274,4.629-10.733.959-2.416,1.87-4.781,2.743-7.049,1.62-4.2,3.111-8.078,4.585-11.425.374-.849.736-1.642,1.083-2.387C58.705,84.3,59.32,86,59.962,87.769c.782,2.158,1.606,4.43,2.249,6.66a45.578,45.578,0,0,1,1.657,9.087,87.011,87.011,0,0,1,.059,11.389c-.313,6.46-1.091,14.661-1.856,22.724-.293,3.1-.586,6.18-.849,9.133-.473,5.315-.853,10.219-1.185,14.918-.329,4.656-.615,9.171-.9,13.685,0,.045.3.006.683-.087a1.886,1.886,0,0,0,.688-.249c.283-4.472.567-8.945.9-13.685.332-4.7.711-9.6,1.184-14.918.263-2.953.556-6.034.85-9.134.764-8.055,1.541-16.25,1.855-22.724A86.857,86.857,0,0,0,65.238,103.177ZM58.782,78.4A4.658,4.658,0,0,1,59.9,74.811a.633.633,0,0,1,.158.354c.1.664-.411,1.976-1.232,3.769C58.8,78.749,58.789,78.569,58.782,78.4Z"/>
    <path class="a" d="M60.294,74.494c.111-.037.153-.051.01,0Z"/>
  </g>
</svg>
